
<svg width="34px" height="34px" viewBox="0 0 34 34" version="1.1" xmlns="http://www.w3.org/2000/svg" xmlns:xlink="http://www.w3.org/1999/xlink">
    <!-- Generator: Sketch 47 (45396) - http://www.bohemiancoding.com/sketch -->
    <desc>Created with Sketch.</desc>
    <defs></defs>
    <g id="Page-1" stroke="none" stroke-width="1" fill="none" fill-rule="evenodd">
        <g id="Mobile-Copy" transform="translate(-75.000000, -789.000000)">
            <g id="Group-Copy" transform="translate(76.000000, 790.000000)">
                <circle id="Oval-2" stroke="#FFFFFF" cx="16" cy="16" r="16"></circle>
                <path d="M15.5555556,6.22222222 C9.91927778,6.22222222 5.33333333,10.8081667 5.33333333,16.4444444 C5.33333333,22.0807222 9.91927778,26.6666667 15.5555556,26.6666667 C17.6204444,26.6666667 19.6086667,26.0546111 21.3042778,24.8982222 C21.8869444,24.4995556 22.0377222,23.7047778 21.6403333,23.1221111 C21.2429444,22.5381667 20.4494444,22.3912222 19.8642222,22.7860556 C18.5941111,23.6536667 17.1042222,24.1111111 15.5555556,24.1111111 C11.3273889,24.1111111 7.88888889,20.6726111 7.88888889,16.4444444 C7.88888889,12.2162778 11.3273889,8.77777778 15.5555556,8.77777778 C19.7837222,8.77777778 23.2222222,12.2162778 23.2222222,16.4444444 L23.2222222,17.0833333 C23.2222222,17.7886667 22.6497778,18.3611111 21.9444444,18.3611111 C21.2391111,18.3611111 20.6666667,17.7886667 20.6666667,17.0833333 L20.6666667,13.25 C20.6666667,12.5433889 20.0955,11.9722222 19.3888889,11.9722222 C18.8253889,11.9722222 18.3602778,12.3427778 18.1903333,12.8513333 C17.4492222,12.3057222 16.5432778,11.9722222 15.5555556,11.9722222 C13.0894444,11.9722222 11.0833333,13.9783333 11.0833333,16.4444444 C11.0833333,18.9105556 13.0894444,20.9166667 15.5555556,20.9166667 C16.8908333,20.9166667 18.0791667,20.3161111 18.8982222,19.3846111 C19.5984444,20.3084444 20.6973333,20.9166667 21.9444444,20.9166667 C24.0578889,20.9166667 25.7777778,19.1967778 25.7777778,17.0833333 L25.7777778,16.4444444 C25.7777778,10.8081667 21.1918333,6.22222222 15.5555556,6.22222222 Z M15.5555556,18.3611111 C14.4988333,18.3611111 13.6388889,17.5011667 13.6388889,16.4444444 C13.6388889,15.3877222 14.4988333,14.5277778 15.5555556,14.5277778 C16.6122778,14.5277778 17.4722222,15.3877222 17.4722222,16.4444444 C17.4722222,17.5011667 16.6122778,18.3611111 15.5555556,18.3611111 Z" id="Shape" fill="#FFFFFF" fill-rule="nonzero"></path>
            </g>
        </g>
    </g>
</svg>