
<svg width="34px" height="34px" viewBox="0 0 34 34" version="1.1" xmlns="http://www.w3.org/2000/svg" xmlns:xlink="http://www.w3.org/1999/xlink">
    <!-- Generator: Sketch 47 (45396) - http://www.bohemiancoding.com/sketch -->
    <desc>Created with Sketch.</desc>
    <defs></defs>
    <g id="Page-1" stroke="none" stroke-width="1" fill="none" fill-rule="evenodd">
        <g id="Mobile-Copy" transform="translate(-145.000000, -790.000000)">
            <g id="Group-2-Copy-2" transform="translate(146.000000, 791.000000)">
                <circle id="Oval-2" stroke="#FFFFFF" cx="16" cy="16" r="16"></circle>
                <path d="M8.96724848,15.1578435 C8.93406201,15.1578435 9.3310705,15.9619831 9.34213265,15.9619831 C10.2086682,17.4420235 11.8790538,18.3620486 14.6968308,18.6173497 C14.2949057,18.9044163 13.8118583,19.4491371 13.7448708,20.078566 C13.2390844,20.3862214 12.2219806,20.4879889 11.431651,20.2532766 C10.3235917,19.9244441 9.89954241,17.8614467 8.24083356,18.1555724 C7.88192805,18.2185153 7.9532175,18.4414625 8.26357244,18.6314677 C8.76935879,18.9391231 9.24503151,19.3244278 9.61192635,20.1438619 C9.89401133,20.7732908 10.4864512,21.8974391 12.3608721,21.8974391 C13.1044948,21.8974391 13.6256453,21.8133192 13.6256453,21.8133192 C13.6256453,21.8133192 13.6397803,23.4198336 13.6397803,24.0445565 C13.6397803,24.7651644 12.6060833,24.9681111 12.6060833,25.3145911 C12.6060833,25.4516537 12.9483955,25.4645952 13.2231057,25.4645952 C13.7663805,25.4645952 14.8965641,25.038113 14.8965641,24.2892691 C14.8965641,23.6945469 14.9070117,21.6950807 14.9070117,21.3444829 C14.9070117,20.5797561 15.3427378,20.3373966 15.3427378,20.3373966 C15.3427378,20.3373966 15.3968194,24.4198608 15.2388764,24.9681111 C15.053278,25.6116581 14.7183405,25.5204791 14.7183405,25.8075458 C14.7183405,26.2346162 16.0789857,25.9128427 16.5300758,24.9745819 C16.8785338,24.2457385 16.7261218,20.2391586 16.7261218,20.2391586 L17.0979332,20.2320996 C17.0979332,20.2320996 17.1188284,22.065679 17.1059225,22.9039372 C17.0930167,23.7721961 17.0303311,24.8698731 17.5785224,25.3875343 C17.938657,25.7281318 19.1050999,26.3252069 19.1050999,25.7793097 C19.1050999,25.4622422 18.4659532,25.2016469 18.4659532,24.3433882 L18.4659532,20.3932804 C18.976656,20.3932804 18.8998355,21.6921394 18.8998355,21.6921394 L18.9373239,24.1057346 C18.9373239,24.1057346 18.8242441,24.9845821 19.9482821,25.3522392 C20.344676,25.4834193 21.1927746,25.5187143 21.2327213,25.2992966 C21.272668,25.0798788 20.2113156,24.7533994 20.2014825,24.0733808 C20.1953369,23.6574871 20.2211486,23.4151276 20.2211486,21.6103725 C20.2211486,19.8056174 19.9636462,19.1385403 19.0657678,18.6067611 C21.8362234,18.3391068 23.5514721,17.6943833 24.3866649,15.9678656 C24.4518087,15.9696304 24.727748,15.1613731 24.6914888,15.1613731 C24.8789308,14.5095906 24.9803339,13.7383931 25,12.825427 C24.9950835,10.3488889 23.7352268,9.47298263 23.4937031,9.06179494 C23.8501503,7.18703793 23.4334758,6.33407349 23.2405026,6.04112433 C22.526379,5.80229429 20.7570486,6.65584698 19.7897245,7.25703984 C18.2139818,6.82349861 14.8818146,6.86526445 13.6324055,7.3688076 C11.3271751,5.81641232 10.1072651,6.05406586 10.1072651,6.05406586 C10.1072651,6.05406586 9.31877921,7.38292563 9.89892784,9.32768455 C9.14055559,10.2371211 8.5751565,10.8806681 8.5751565,12.5860087 C8.57577106,13.5472114 8.69622565,14.4072348 8.96724848,15.1578435 Z" id="Shape" fill="#FFFFFF"></path>
            </g>
        </g>
    </g>
</svg>