
<svg width="10px" height="13px" viewBox="0 0 10 13" version="1.1" xmlns="http://www.w3.org/2000/svg" xmlns:xlink="http://www.w3.org/1999/xlink">
    <!-- Generator: Sketch 47 (45396) - http://www.bohemiancoding.com/sketch -->
    <desc>Created with Sketch.</desc>
    <defs></defs>
    <g id="Page-1" stroke="none" stroke-width="1" fill="none" fill-rule="evenodd">
        <g id="Mobile-Copy" transform="translate(-124.000000, -745.000000)" fill-rule="nonzero" fill="#FFFFFF">
            <g id="Group-5" transform="translate(124.000000, 744.000000)">
                <g id="Group-4" transform="translate(0.000000, 1.000000)">
                    <path d="M7.40619533,4.72729818 C7.40619533,6.0322173 6.2869273,7.09090061 4.90624447,7.09090061 C3.5253651,7.09090061 2.40629361,6.0322173 2.40629361,4.72729818 C2.40629361,3.4220057 3.52556165,2.36369576 4.90624447,2.36369576 C6.28722212,2.36360242 7.40619533,3.42191236 7.40619533,4.72729818 M10,4.72729818 C10,2.11643319 7.7615622,0 5,0 C2.23863435,0 0,2.11643319 0,4.72729818 C0,5.8752163 0.433201643,6.92773904 1.15307506,7.74644044 L5.00432415,13 L8.91188553,7.66980678 C9.05222399,7.50375162 9.18076931,7.32873565 9.29673526,7.14475885 L9.33624231,7.09118063 L9.32975608,7.09118063 C9.75529218,6.39541045 10,5.58875015 10,4.72729818" id="Shape"></path>
                </g>
            </g>
        </g>
    </g>
</svg>