
<svg width="34px" height="34px" viewBox="0 0 34 34" version="1.1" xmlns="http://www.w3.org/2000/svg" xmlns:xlink="http://www.w3.org/1999/xlink">
    <!-- Generator: Sketch 47 (45396) - http://www.bohemiancoding.com/sketch -->
    <desc>Created with Sketch.</desc>
    <defs>
        <circle id="path-1" cx="16" cy="16" r="16"></circle>
    </defs>
    <g id="Page-1" stroke="none" stroke-width="1" fill="none" fill-rule="evenodd">
        <g id="Mobile-Copy" transform="translate(-214.000000, -790.000000)">
            <g id="Group-2-Copy-3" transform="translate(215.000000, 791.000000)">
                <mask id="mask-2" fill="white">
                    <use xlink:href="#path-1"></use>
                </mask>
                <use id="Oval-2" stroke="#FFFFFF" xlink:href="#path-1"></use>
                <path d="M26.0540822,25.2264218 C25.8079295,25.493198 25.4164138,25.6954423 25.0215717,25.798893 C23.9484793,26.07964 22.6804607,25.7885812 21.6825446,25.3494981 C18.4998578,23.9490893 19.2027233,20.4024957 20.5984752,17.9566035 C21.0175999,17.2221373 21.4310698,16.4826815 21.8472008,15.739234 C22.1745172,15.15379 22.8830376,14.1678489 22.605617,13.4523431 C22.3145581,12.7019103 21.535851,12.6972533 21.0245853,13.3295995 C20.5326127,13.9379956 20.1178123,14.8111721 19.7785208,15.5196925 C19.4089593,16.2910816 17.5644778,20.3452818 17.5644778,20.3452818 C17.2238558,21.0055696 16.6493888,21.9549204 16.0263565,22.4794916 C15.5616603,22.8710073 14.7124338,22.9857677 14.1539334,22.5802811 C13.7298191,22.2719251 13.6459942,21.8621142 13.7291538,21.3847777 C14.1136841,19.1810465 17.4560376,14.0534212 15.1508515,13.6925083 C14.2673632,13.5541306 14.0275307,14.5370779 13.7550996,15.164767 C13.3047069,16.2012692 12.9614238,17.2806817 12.479763,18.3052088 C11.9262522,19.4814192 11.5021379,20.7065274 11.2114117,21.970887 C10.9792299,22.9811107 10.6785245,24.2684224 9.52825996,24.5761132 C6.37983487,25.4180217 5.42316603,23.3393626 5.42316603,23.3390299 C4.90923927,21.7037782 5.39655493,20.23285 5.89152128,18.6601343 C6.27405577,17.4453378 6.50257854,16.1922879 6.98690045,15.0100901 C7.85109574,12.9024914 8.71229728,8.50500806 11.8264606,8.78608774 C12.621467,8.8579377 13.5106102,9.25976522 14.1975091,9.66026219 C14.8218719,10.0245015 15.2968799,10.2187625 16.0236954,9.82624889 C16.7308853,9.44504496 17.0545427,8.73619194 17.8971165,8.49303306 C18.8002305,8.23257698 19.3939905,8.61810521 20.069247,9.16130417 C21.0159367,9.92238147 21.1190547,9.57843307 21.9000903,9.37851723 C22.5477378,9.21253053 23.2998339,9.13569099 24.0096848,9.25710411 C27.6627228,9.8831301 25.3362479,14.5463917 24.4647346,16.4204781 C23.8975856,17.6395988 21.1902394,22.5423603 23.5888969,23.2013175 C24.312386,23.3999028 25.2451049,23.3094251 25.8475135,23.8283414 C26.4599013,24.3555737 26.3990285,24.8535338 26.0540822,25.2264218 Z" id="Shape" fill="#FFFFFF" fill-rule="nonzero" mask="url(#mask-2)"></path>
            </g>
        </g>
    </g>
</svg>